<svg xmlns="http://www.w3.org/2000/svg" viewBox="0 0 1600 900">
  <defs>
    <linearGradient id="g" x1="0" x2="1" y1="0" y2="1">
      <stop offset="0%" stop-color="#04111a"/>
      <stop offset="55%" stop-color="#08222a"/>
      <stop offset="100%" stop-color="#0d2f2d"/>
    </linearGradient>
    <linearGradient id="river" x1="0" x2="1">
      <stop offset="0%" stop-color="#1fd5aa" stop-opacity=".18"/>
      <stop offset="100%" stop-color="#1da8ff" stop-opacity=".16"/>
    </linearGradient>
  </defs>
  <rect width="1600" height="900" fill="url(#g)"/>
  <circle cx="220" cy="180" r="170" fill="#1fe58e" opacity=".08"/>
  <circle cx="1380" cy="160" r="150" fill="#23b8ff" opacity=".08"/>
  <path d="M0 640 C220 570 450 730 730 650 C1000 580 1260 730 1600 650 L1600 900 L0 900 Z" fill="url(#river)"/>
  <path d="M0 730 C260 660 500 830 860 750 C1120 690 1360 820 1600 760 L1600 900 L0 900 Z" fill="#1fd5aa" opacity=".08"/>
  <g opacity=".14">
    <rect x="120" y="340" width="26" height="180" rx="12" fill="#2b1a12"/>
    <circle cx="133" cy="290" r="82" fill="#1fe58e"/>
    <circle cx="92" cy="320" r="42" fill="#19bb63"/>
    <circle cx="177" cy="324" r="40" fill="#16944e"/>
  </g>
  <g opacity=".12">
    <rect x="1320" y="360" width="22" height="150" rx="10" fill="#2b1a12"/>
    <circle cx="1331" cy="320" r="68" fill="#1fe58e"/>
    <circle cx="1294" cy="340" r="34" fill="#19bb63"/>
    <circle cx="1362" cy="344" r="34" fill="#16944e"/>
  </g>
</svg>