<svg width="1600" height="900" viewBox="0 0 1600 900" xmlns="http://www.w3.org/2000/svg">
  <defs>
    <linearGradient id="bg" x1="0" y1="0" x2="1" y2="1">
      <stop offset="0%" stop-color="#03131a"></stop>
      <stop offset="50%" stop-color="#0b2b2f"></stop>
      <stop offset="100%" stop-color="#123b2f"></stop>
    </linearGradient>
    <linearGradient id="water" x1="0" y1="0" x2="1" y2="0">
      <stop offset="0%" stop-color="#0ea5e9" stop-opacity="0.18"></stop>
      <stop offset="100%" stop-color="#22c55e" stop-opacity="0.10"></stop>
    </linearGradient>
  </defs>

  <rect width="1600" height="900" fill="url(#bg)"></rect>

  <circle cx="1350" cy="120" r="140" fill="#22c55e" opacity="0.08"></circle>
  <circle cx="1180" cy="220" r="90" fill="#06b6d4" opacity="0.08"></circle>
  <circle cx="220" cy="140" r="120" fill="#22c55e" opacity="0.06"></circle>

  <path d="M0 620 C250 560 420 700 650 650 C900 600 1120 760 1600 640 L1600 900 L0 900 Z" fill="url(#water)"></path>
  <path d="M0 700 C220 660 460 820 760 740 C1010 680 1260 820 1600 730 L1600 900 L0 900 Z" fill="#0ea5e9" opacity="0.10"></path>

  <g opacity="0.14">
    <rect x="180" y="300" width="22" height="180" rx="8" fill="#3f2d20"></rect>
    <circle cx="191" cy="260" r="70" fill="#22c55e"></circle>
    <circle cx="145" cy="285" r="45" fill="#16a34a"></circle>
    <circle cx="235" cy="290" r="42" fill="#15803d"></circle>
  </g>

  <g opacity="0.10">
    <rect x="1280" y="340" width="20" height="150" rx="8" fill="#3f2d20"></rect>
    <circle cx="1290" cy="305" r="62" fill="#22c55e"></circle>
    <circle cx="1248" cy="325" r="38" fill="#16a34a"></circle>
    <circle cx="1332" cy="330" r="36" fill="#15803d"></circle>
  </g>
</svg>
